<svg width="34" height="34" viewBox="0 0 34 34" fill="none" xmlns="http://www.w3.org/2000/svg">
<path d="M16.9788 34C14.5735 34 12.3379 33.5679 10.2722 32.7038C8.20641 31.8396 6.40949 30.6425 4.8814 29.1125C3.35331 27.5825 2.15772 25.7833 1.29463 23.715C0.431544 21.6467 0 19.4083 0 17C0 14.62 0.431544 12.3958 1.29463 10.3275C2.15772 8.25917 3.35331 6.46 4.8814 4.93C6.40949 3.4 8.20641 2.19583 10.2722 1.3175C12.3379 0.439167 14.5735 0 16.9788 0C19.1011 0 21.082 0.34 22.9213 1.02C24.7607 1.7 26.4161 2.635 27.8876 3.825L26.0624 5.6525C24.8173 4.66083 23.4307 3.89583 21.9026 3.3575C20.3745 2.81917 18.7332 2.55 16.9788 2.55C12.8756 2.55 9.44444 3.93125 6.68539 6.69375C3.92634 9.45625 2.54682 12.8917 2.54682 17C2.54682 21.1083 3.92634 24.5438 6.68539 27.3063C9.44444 30.0688 12.8756 31.45 16.9788 31.45C21.082 31.45 24.5131 30.0688 27.2722 27.3063C30.0312 24.5438 31.4107 21.1083 31.4107 17C31.4107 16.15 31.3471 15.3213 31.2197 14.5138C31.0924 13.7063 30.9014 12.92 30.6467 12.155L32.5993 10.2C33.052 11.2483 33.3916 12.3392 33.618 13.4725C33.8444 14.6058 33.9576 15.7817 33.9576 17C33.9576 19.4083 33.5189 21.6467 32.6417 23.715C31.7645 25.7833 30.5618 27.5825 29.0337 29.1125C27.5056 30.6425 25.7087 31.8396 23.6429 32.7038C21.5772 33.5679 19.3558 34 16.9788 34ZM14.4744 24.735L7.47066 17.68L9.38077 15.7675L14.4744 20.8675L32.0474 3.2725L34 5.185L14.4744 24.735Z" fill="#D8BE69"/>
</svg>
