<svg width="14" height="16" viewBox="0 0 14 16" fill="none" xmlns="http://www.w3.org/2000/svg">
<path d="M13 7.5632L7.32667 13.8056C6.63165 14.5704 5.68899 15 4.70608 15C3.72317 15 2.78051 14.5704 2.08549 13.8056C1.39046 13.0409 1 12.0037 1 10.9222C1 9.84064 1.39046 8.80342 2.08549 8.03868L7.75881 1.79625C8.22216 1.28642 8.8506 1 9.50587 1C10.1611 1 10.7896 1.28642 11.2529 1.79625C11.7163 2.30608 11.9766 2.99756 11.9766 3.71856C11.9766 4.43957 11.7163 5.13105 11.2529 5.64088L5.57344 11.8833C5.34176 12.1382 5.02754 12.2814 4.69991 12.2814C4.37227 12.2814 4.05805 12.1382 3.82638 11.8833C3.5947 11.6284 3.46455 11.2827 3.46455 10.9222C3.46455 10.5616 3.5947 10.2159 3.82638 9.961L9.06756 4.20084" stroke="#E7E7E7" stroke-linecap="square" stroke-linejoin="round"/>
</svg>
