<svg width="19" height="23" viewBox="0 0 19 23" fill="none" xmlns="http://www.w3.org/2000/svg">
<path d="M18 9.5C18 16.1111 9.5 21.7778 9.5 21.7778C9.5 21.7778 1 16.1111 1 9.5C1 7.24566 1.89553 5.08365 3.48959 3.48959C5.08365 1.89553 7.24566 1 9.5 1C11.7543 1 13.9163 1.89553 15.5104 3.48959C17.1045 5.08365 18 7.24566 18 9.5Z" stroke="#9C9C9C" stroke-width="1.5" stroke-linecap="round" stroke-linejoin="round"/>
<path d="M9.50033 12.3333C11.0651 12.3333 12.3337 11.0648 12.3337 9.49996C12.3337 7.93515 11.0651 6.66663 9.50033 6.66663C7.93552 6.66663 6.66699 7.93515 6.66699 9.49996C6.66699 11.0648 7.93552 12.3333 9.50033 12.3333Z" stroke="#9C9C9C" stroke-width="1.5" stroke-linecap="round" stroke-linejoin="round"/>
</svg>
