<svg width="82" height="18" viewBox="0 0 82 18" fill="none" xmlns="http://www.w3.org/2000/svg">
<path d="M71.381 17.1221C71.4779 17.1221 71.5707 17.0929 71.6392 17.041C71.7076 16.989 71.7461 16.9185 71.7461 16.8451V0.315659C71.7461 0.242172 71.7076 0.171694 71.6392 0.119731C71.5707 0.067767 71.4779 0.0385742 71.381 0.0385742C71.3334 0.038568 71.2862 0.0457681 71.2423 0.0597538C71.1984 0.0737394 71.1586 0.0942299 71.1252 0.120028C71.0918 0.145826 71.0656 0.176414 71.048 0.210004C71.0303 0.243594 71.0217 0.279512 71.0226 0.315659V16.8451C71.0226 16.9177 71.0601 16.9874 71.1272 17.0392C71.1942 17.091 71.2854 17.1208 71.381 17.1221Z" fill="url(#paint0_linear_374_84)"/>
<path d="M76.5908 14.6577C76.6865 14.6564 76.7776 14.6266 76.8447 14.5748C76.9117 14.5229 76.9492 14.4532 76.9492 14.3806V3.86143C76.9441 3.79193 76.9041 3.72655 76.8374 3.67876C76.7708 3.63096 76.6825 3.60439 76.5908 3.60449C76.4951 3.60448 76.4032 3.63298 76.335 3.68386C76.2667 3.73474 76.2275 3.80393 76.2257 3.87654V14.3806C76.2257 14.417 76.2352 14.453 76.2535 14.4866C76.2719 14.5202 76.2988 14.5508 76.3327 14.5765C76.3666 14.6022 76.4068 14.6227 76.4511 14.6366C76.4954 14.6505 76.5429 14.6577 76.5908 14.6577Z" fill="url(#paint1_linear_374_84)"/>
<path d="M81.6349 11.7079C81.6831 11.7085 81.7309 11.7018 81.7756 11.6882C81.8203 11.6745 81.8609 11.6541 81.895 11.6282C81.9291 11.6024 81.956 11.5715 81.974 11.5376C81.992 11.5037 82.0008 11.4673 81.9999 11.4308V6.81604C81.9999 6.77989 81.9905 6.74409 81.972 6.71075C81.9536 6.67742 81.9266 6.6472 81.8926 6.62187C81.8586 6.59654 81.8183 6.57661 81.7741 6.56324C81.7298 6.54986 81.6825 6.54332 81.6349 6.54399C81.5878 6.54399 81.5412 6.55103 81.4977 6.5647C81.4542 6.57837 81.4147 6.59841 81.3814 6.62367C81.3481 6.64893 81.3217 6.67893 81.3037 6.71193C81.2857 6.74494 81.2764 6.78031 81.2764 6.81604V11.4308C81.2756 11.4669 81.2842 11.5028 81.3018 11.5364C81.3194 11.57 81.3457 11.6006 81.3791 11.6264C81.4124 11.6522 81.4522 11.6727 81.4962 11.6867C81.5401 11.7007 81.5872 11.7079 81.6349 11.7079Z" fill="url(#paint2_linear_374_84)"/>
<path d="M66.3605 14.1123C66.4085 14.1123 66.4559 14.1051 66.5002 14.0912C66.5445 14.0772 66.5848 14.0568 66.6187 14.0311C66.6526 14.0054 66.6795 13.9748 66.6978 13.9412C66.7161 13.9076 66.7256 13.8716 66.7256 13.8352V3.31602C66.7189 3.24608 66.6775 3.18067 66.6097 3.13299C66.542 3.08531 66.4529 3.0589 66.3605 3.05908C66.2655 3.05908 66.1743 3.08774 66.1071 3.13876C66.0399 3.18978 66.0021 3.25898 66.0021 3.33113V13.8352C66.0021 13.9078 66.0396 13.9775 66.1067 14.0293C66.1737 14.0812 66.2649 14.1109 66.3605 14.1123Z" fill="url(#paint3_linear_374_84)"/>
<path d="M61.3183 11.1624C61.3659 11.1624 61.4131 11.1552 61.457 11.1412C61.5009 11.1272 61.5407 11.1067 61.5741 11.0809C61.6075 11.0551 61.6337 11.0246 61.6513 10.991C61.669 10.9574 61.6776 10.9215 61.6767 10.8853V6.27058C61.6767 6.19843 61.6389 6.12923 61.5717 6.07822C61.5045 6.0272 61.4133 5.99854 61.3183 5.99854C61.2226 5.99852 61.1307 6.02702 61.0624 6.0779C60.9942 6.12878 60.9549 6.19797 60.9532 6.27058V10.8853C60.9532 10.9588 60.9917 11.0293 61.0601 11.0812C61.1286 11.1332 61.2214 11.1624 61.3183 11.1624Z" fill="url(#paint4_linear_374_84)"/>
<path d="M15.2008 17.5715C15.2964 17.5702 15.3876 17.5404 15.4546 17.4886C15.5216 17.4368 15.5592 17.3671 15.5592 17.2944V0.765046C15.5662 0.725869 15.5621 0.686008 15.5471 0.64814C15.5321 0.610271 15.5067 0.575273 15.4724 0.545495C15.4381 0.515718 15.3959 0.491851 15.3484 0.475498C15.301 0.459144 15.2495 0.450684 15.1974 0.450684C15.1453 0.450684 15.0939 0.459144 15.0464 0.475498C14.999 0.491851 14.9567 0.515718 14.9225 0.545495C14.8882 0.575273 14.8627 0.610271 14.8478 0.64814C14.8328 0.686008 14.8287 0.725869 14.8357 0.765046V17.2944C14.8357 17.3679 14.8742 17.4384 14.9426 17.4904C15.0111 17.5423 15.1039 17.5715 15.2008 17.5715Z" fill="url(#paint5_linear_374_84)"/>
<path d="M20.3918 14.1123C20.4886 14.1123 20.5814 14.0831 20.6499 14.0311C20.7184 13.9791 20.7568 13.9087 20.7568 13.8352V3.31602C20.7501 3.24608 20.7087 3.18067 20.641 3.13299C20.5732 3.08531 20.4842 3.0589 20.3918 3.05908C20.2967 3.05908 20.2055 3.08774 20.1383 3.13876C20.0711 3.18978 20.0333 3.25898 20.0333 3.33113V13.8352C20.0333 13.9078 20.0709 13.9775 20.1379 14.0293C20.2049 14.0812 20.2961 14.1109 20.3918 14.1123Z" fill="url(#paint6_linear_374_84)"/>
<path d="M25.4394 11.1624C25.487 11.1624 25.5342 11.1552 25.5781 11.1412C25.622 11.1272 25.6618 11.1067 25.6952 11.0809C25.7286 11.0551 25.7548 11.0246 25.7724 10.991C25.7901 10.9574 25.7987 10.9215 25.7978 10.8853V6.27058C25.7978 6.23486 25.7885 6.19948 25.7705 6.16647C25.7525 6.13347 25.7261 6.10348 25.6928 6.07822C25.6595 6.05295 25.62 6.03292 25.5765 6.01924C25.533 6.00557 25.4864 5.99854 25.4394 5.99854C25.3437 5.99852 25.2518 6.02702 25.1835 6.0779C25.1153 6.12878 25.076 6.19797 25.0743 6.27058V10.8853C25.0743 10.9588 25.1128 11.0293 25.1812 11.0812C25.2497 11.1332 25.3425 11.1624 25.4394 11.1624Z" fill="url(#paint7_linear_374_84)"/>
<path d="M10.167 14.5634C10.2626 14.5621 10.3538 14.5323 10.4208 14.4805C10.4879 14.4287 10.5254 14.3589 10.5254 14.2863V3.76715C10.5135 3.70073 10.4703 3.63983 10.4038 3.59574C10.3373 3.55164 10.252 3.52734 10.1636 3.52734C10.0753 3.52734 9.99001 3.55164 9.92349 3.59574C9.85698 3.63983 9.81378 3.70073 9.8019 3.76715V14.2863C9.8019 14.3598 9.84036 14.4303 9.90882 14.4822C9.97729 14.5342 10.0701 14.5634 10.167 14.5634Z" fill="url(#paint8_linear_374_84)"/>
<path d="M5.11931 11.6108C5.21613 11.6108 5.30898 11.5816 5.37745 11.5296C5.44591 11.4777 5.48437 11.4072 5.48438 11.3337V6.71898C5.48437 6.64549 5.44591 6.57501 5.37745 6.52305C5.30898 6.47109 5.21613 6.44189 5.11931 6.44189C5.02249 6.44189 4.92963 6.47109 4.86117 6.52305C4.79271 6.57501 4.75425 6.64549 4.75425 6.71898V11.3337C4.75425 11.4072 4.79271 11.4777 4.86117 11.5296C4.92963 11.5816 5.02249 11.6108 5.11931 11.6108Z" fill="url(#paint9_linear_374_84)"/>
<path d="M41.1267 17.1208C41.2236 17.1208 41.3164 17.0916 41.3849 17.0397C41.4533 16.9877 41.4918 16.9172 41.4918 16.8438V0.314362C41.4988 0.275186 41.4947 0.235324 41.4797 0.197456C41.4647 0.159588 41.4393 0.124589 41.405 0.0948117C41.3707 0.0650342 41.3285 0.0411673 41.2811 0.024814C41.2336 0.00846079 41.1821 0 41.1301 0C41.078 0 41.0265 0.00846079 40.9791 0.024814C40.9316 0.0411673 40.8894 0.0650342 40.8551 0.0948117C40.8208 0.124589 40.7954 0.159588 40.7804 0.197456C40.7654 0.235324 40.7613 0.275186 40.7683 0.314362V16.8438C40.7683 16.9164 40.8058 16.9861 40.8729 17.0379C40.9399 17.0897 41.0311 17.1195 41.1267 17.1208Z" fill="url(#paint10_linear_374_84)"/>
<path d="M51.2951 14.1127C51.3919 14.1127 51.4848 14.0835 51.5532 14.0316C51.6217 13.9796 51.6602 13.9091 51.6602 13.8356V3.31647C51.6483 3.25005 51.6051 3.18915 51.5386 3.14505C51.472 3.10096 51.3867 3.07666 51.2984 3.07666C51.2101 3.07666 51.1248 3.10096 51.0583 3.14505C50.9917 3.18915 50.9485 3.25005 50.9367 3.31647V13.8356C50.9366 13.9083 50.9742 13.978 51.0412 14.0298C51.1083 14.0816 51.1994 14.1114 51.2951 14.1127Z" fill="url(#paint11_linear_374_84)"/>
<path d="M56.3437 9.79253C56.4388 9.79253 56.53 9.76387 56.5972 9.71285C56.6644 9.66183 56.7021 9.59264 56.7021 9.52048V7.64134C56.7022 7.56872 56.6646 7.499 56.5976 7.44717C56.5305 7.39535 56.4394 7.36558 56.3437 7.36426C56.2469 7.36426 56.154 7.39345 56.0856 7.44541C56.0171 7.49738 55.9787 7.56786 55.9787 7.64134V9.52048C55.9804 9.5931 56.0196 9.66229 56.0879 9.71316C56.1562 9.76404 56.248 9.79254 56.3437 9.79253Z" fill="url(#paint12_linear_374_84)"/>
<path d="M0.358566 10.2432C0.454248 10.2432 0.546111 10.2147 0.614386 10.1638C0.682662 10.113 0.721893 10.0438 0.723633 9.97117V8.09203C0.723633 8.01854 0.685169 7.94806 0.616706 7.8961C0.548243 7.84413 0.455387 7.81494 0.358566 7.81494C0.2629 7.81626 0.17174 7.84604 0.104706 7.89786C0.0376722 7.94968 0.000122964 8.0194 0.00013876 8.09203V9.97117C0.00013876 10.0069 0.00941116 10.0423 0.0274238 10.0753C0.0454364 10.1083 0.0718383 10.1383 0.105121 10.1635C0.138404 10.1888 0.177915 10.2088 0.221402 10.2225C0.264888 10.2362 0.311497 10.2432 0.358566 10.2432Z" fill="url(#paint13_linear_374_84)"/>
<path d="M46.2502 11.1624C46.347 11.1624 46.4398 11.1332 46.5083 11.0812C46.5768 11.0293 46.6152 10.9588 46.6152 10.8853V6.27058C46.6135 6.19797 46.5743 6.12878 46.506 6.0779C46.4377 6.02702 46.3459 5.99852 46.2502 5.99854C46.1551 5.99854 46.0639 6.0272 45.9967 6.07822C45.9295 6.12923 45.8917 6.19843 45.8917 6.27058V10.8853C45.8909 10.9215 45.8995 10.9574 45.9171 10.991C45.9347 11.0246 45.961 11.0551 45.9943 11.0809C46.0277 11.1067 46.0675 11.1272 46.1115 11.1412C46.1554 11.1552 46.2025 11.1624 46.2502 11.1624Z" fill="url(#paint14_linear_374_84)"/>
<path d="M36.1025 14.1127C36.1982 14.1114 36.2893 14.0816 36.3564 14.0298C36.4234 13.978 36.461 13.9083 36.4609 13.8356V3.31647C36.4491 3.25005 36.4059 3.18915 36.3393 3.14505C36.2728 3.10096 36.1875 3.07666 36.0992 3.07666C36.0109 3.07666 35.9256 3.10096 35.859 3.14505C35.7925 3.18915 35.7493 3.25005 35.7374 3.31647V13.8356C35.7374 13.9091 35.7759 13.9796 35.8444 14.0316C35.9128 14.0835 36.0057 14.1127 36.1025 14.1127Z" fill="url(#paint15_linear_374_84)"/>
<path d="M30.7648 12.6358C30.8616 12.6358 30.9545 12.6066 31.023 12.5546C31.0914 12.5027 31.1299 12.4322 31.1299 12.3587V4.80182C31.118 4.7354 31.0748 4.6745 31.0083 4.6304C30.9418 4.58631 30.8565 4.56201 30.7681 4.56201C30.6798 4.56201 30.5945 4.58631 30.528 4.6304C30.4615 4.6745 30.4183 4.7354 30.4064 4.80182V12.3587C30.4064 12.4313 30.4439 12.501 30.511 12.5529C30.578 12.6047 30.6692 12.6345 30.7648 12.6358Z" fill="url(#paint16_linear_374_84)"/>
<defs>
<linearGradient id="paint0_linear_374_84" x1="71.3843" y1="0.0385742" x2="71.3843" y2="17.1221" gradientUnits="userSpaceOnUse">
<stop stop-color="#7D7D7D"/>
<stop offset="1" stop-color="#444444" stop-opacity="0.6"/>
</linearGradient>
<linearGradient id="paint1_linear_374_84" x1="76.5875" y1="3.60449" x2="76.5875" y2="14.6577" gradientUnits="userSpaceOnUse">
<stop stop-color="#7D7D7D"/>
<stop offset="1" stop-color="#444444" stop-opacity="0.6"/>
</linearGradient>
<linearGradient id="paint2_linear_374_84" x1="81.6382" y1="6.54395" x2="81.6382" y2="11.7079" gradientUnits="userSpaceOnUse">
<stop stop-color="#7D7D7D"/>
<stop offset="1" stop-color="#444444" stop-opacity="0.6"/>
</linearGradient>
<linearGradient id="paint3_linear_374_84" x1="66.3638" y1="3.05908" x2="66.3638" y2="14.1123" gradientUnits="userSpaceOnUse">
<stop stop-color="#7D7D7D"/>
<stop offset="1" stop-color="#444444" stop-opacity="0.6"/>
</linearGradient>
<linearGradient id="paint4_linear_374_84" x1="61.315" y1="5.99854" x2="61.315" y2="11.1624" gradientUnits="userSpaceOnUse">
<stop stop-color="#7D7D7D"/>
<stop offset="1" stop-color="#444444" stop-opacity="0.6"/>
</linearGradient>
<linearGradient id="paint5_linear_374_84" x1="15.1974" y1="0.450684" x2="15.1974" y2="17.5715" gradientUnits="userSpaceOnUse">
<stop stop-color="#7D7D7D"/>
<stop offset="1" stop-color="#444444" stop-opacity="0.6"/>
</linearGradient>
<linearGradient id="paint6_linear_374_84" x1="20.3951" y1="3.05908" x2="20.3951" y2="14.1123" gradientUnits="userSpaceOnUse">
<stop stop-color="#7D7D7D"/>
<stop offset="1" stop-color="#444444" stop-opacity="0.6"/>
</linearGradient>
<linearGradient id="paint7_linear_374_84" x1="25.4361" y1="5.99854" x2="25.4361" y2="11.1624" gradientUnits="userSpaceOnUse">
<stop stop-color="#7D7D7D"/>
<stop offset="1" stop-color="#444444" stop-opacity="0.6"/>
</linearGradient>
<linearGradient id="paint8_linear_374_84" x1="10.1636" y1="3.52734" x2="10.1636" y2="14.5634" gradientUnits="userSpaceOnUse">
<stop stop-color="#7D7D7D"/>
<stop offset="1" stop-color="#444444" stop-opacity="0.6"/>
</linearGradient>
<linearGradient id="paint9_linear_374_84" x1="5.11931" y1="6.44189" x2="5.11931" y2="11.6108" gradientUnits="userSpaceOnUse">
<stop stop-color="#7D7D7D"/>
<stop offset="1" stop-color="#444444" stop-opacity="0.6"/>
</linearGradient>
<linearGradient id="paint10_linear_374_84" x1="41.1301" y1="0" x2="41.1301" y2="17.1208" gradientUnits="userSpaceOnUse">
<stop stop-color="#7D7D7D"/>
<stop offset="1" stop-color="#444444" stop-opacity="0.6"/>
</linearGradient>
<linearGradient id="paint11_linear_374_84" x1="51.2984" y1="3.07666" x2="51.2984" y2="14.1127" gradientUnits="userSpaceOnUse">
<stop stop-color="#7D7D7D"/>
<stop offset="1" stop-color="#444444" stop-opacity="0.6"/>
</linearGradient>
<linearGradient id="paint12_linear_374_84" x1="56.3404" y1="7.36426" x2="56.3404" y2="9.79253" gradientUnits="userSpaceOnUse">
<stop stop-color="#7D7D7D"/>
<stop offset="1" stop-color="#444444" stop-opacity="0.6"/>
</linearGradient>
<linearGradient id="paint13_linear_374_84" x1="0.361886" y1="7.81494" x2="0.361886" y2="10.2432" gradientUnits="userSpaceOnUse">
<stop stop-color="#7D7D7D"/>
<stop offset="1" stop-color="#444444" stop-opacity="0.6"/>
</linearGradient>
<linearGradient id="paint14_linear_374_84" x1="46.2535" y1="5.99854" x2="46.2535" y2="11.1624" gradientUnits="userSpaceOnUse">
<stop stop-color="#7D7D7D"/>
<stop offset="1" stop-color="#444444" stop-opacity="0.6"/>
</linearGradient>
<linearGradient id="paint15_linear_374_84" x1="36.0992" y1="3.07666" x2="36.0992" y2="14.1127" gradientUnits="userSpaceOnUse">
<stop stop-color="#7D7D7D"/>
<stop offset="1" stop-color="#444444" stop-opacity="0.6"/>
</linearGradient>
<linearGradient id="paint16_linear_374_84" x1="30.7681" y1="4.56201" x2="30.7681" y2="12.6358" gradientUnits="userSpaceOnUse">
<stop stop-color="#7D7D7D"/>
<stop offset="1" stop-color="#444444" stop-opacity="0.6"/>
</linearGradient>
</defs>
</svg>
