<svg width="181" height="39" viewBox="0 0 181 39" fill="none" xmlns="http://www.w3.org/2000/svg">
<path d="M23.4386 38C23.2249 38 23.0199 37.9352 22.8688 37.8199C22.7177 37.7046 22.6328 37.5482 22.6328 37.3851V0.700881C22.6328 0.537788 22.7177 0.381375 22.8688 0.26605C23.0199 0.150726 23.2249 0.0859375 23.4386 0.0859375C23.5438 0.0859237 23.6479 0.101903 23.7448 0.132942C23.8418 0.163981 23.9296 0.209456 24.0033 0.26671C24.077 0.323964 24.1349 0.391849 24.1738 0.466396C24.2127 0.540943 24.2317 0.620658 24.2298 0.700881V37.3851C24.2298 37.5462 24.1469 37.701 23.999 37.816C23.851 37.931 23.6498 37.9971 23.4386 38Z" fill="#E7E7E7"/>
<path d="M11.9396 32.5307C11.7284 32.5277 11.5272 32.4616 11.3793 32.3466C11.2313 32.2316 11.1484 32.0769 11.1484 31.9157V8.57022C11.1597 8.41598 11.248 8.27089 11.3951 8.16482C11.5423 8.05875 11.7372 7.99976 11.9396 8C12.1508 7.99997 12.3536 8.06323 12.5043 8.17614C12.655 8.28906 12.7416 8.44262 12.7454 8.60376V31.9157C12.7454 31.9965 12.7246 32.0764 12.6841 32.151C12.6436 32.2257 12.5842 32.2934 12.5094 32.3505C12.4346 32.4077 12.3457 32.4529 12.248 32.4839C12.1502 32.5148 12.0454 32.5307 11.9396 32.5307Z" fill="#E7E7E7"/>
<path d="M0.805948 25.9839C0.699581 25.9854 0.593905 25.9705 0.495241 25.9401C0.396577 25.9098 0.306951 25.8645 0.231725 25.8071C0.156499 25.7497 0.0972171 25.6813 0.0574254 25.606C0.0176337 25.5307 -0.00185045 25.4501 0.000138253 25.3689V15.1273C0.000120223 15.0471 0.0210594 14.9676 0.0617319 14.8936C0.102404 14.8197 0.161994 14.7526 0.237019 14.6964C0.312044 14.6402 0.400998 14.5959 0.498684 14.5663C0.596369 14.5366 0.700826 14.5221 0.805948 14.5235C0.909845 14.5235 1.01272 14.5392 1.10871 14.5695C1.2047 14.5998 1.29192 14.6443 1.36538 14.7004C1.43885 14.7564 1.49712 14.823 1.53688 14.8963C1.57664 14.9695 1.59711 15.048 1.59711 15.1273V25.3689C1.59905 25.4491 1.58003 25.5288 1.54114 25.6034C1.50225 25.6779 1.44429 25.7458 1.37063 25.8031C1.29697 25.8603 1.20909 25.9058 1.11213 25.9369C1.01518 25.9679 0.911089 25.9839 0.805948 25.9839Z" fill="#E7E7E7"/>
<path d="M34.5207 31.3197C34.4148 31.3197 34.31 31.3038 34.2123 31.2729C34.1145 31.242 34.0257 31.1967 33.9509 31.1396C33.876 31.0825 33.8167 31.0147 33.7762 30.9401C33.7357 30.8655 33.7148 30.7855 33.7148 30.7048V7.35929C33.7297 7.20406 33.8211 7.05891 33.9706 6.95309C34.1202 6.84727 34.3167 6.78865 34.5207 6.78906C34.7305 6.78906 34.9317 6.85267 35.0801 6.9659C35.2285 7.07913 35.3118 7.2327 35.3118 7.39283V30.7048C35.3118 30.866 35.229 31.0207 35.081 31.1357C34.933 31.2507 34.7318 31.3168 34.5207 31.3197Z" fill="#E7E7E7"/>
<path d="M45.6507 24.7728C45.5455 24.7728 45.4414 24.7569 45.3445 24.7258C45.2475 24.6948 45.1596 24.6493 45.086 24.592C45.0123 24.5348 44.9544 24.4669 44.9155 24.3924C44.8766 24.3178 44.8576 24.2381 44.8595 24.1579V13.9163C44.8595 13.7561 44.9429 13.6026 45.0912 13.4893C45.2396 13.3761 45.4408 13.3125 45.6507 13.3125C45.8619 13.3125 46.0646 13.3757 46.2153 13.4886C46.366 13.6016 46.4526 13.7551 46.4565 13.9163V24.1579C46.4565 24.321 46.3716 24.4774 46.2205 24.5927C46.0693 24.708 45.8644 24.7728 45.6507 24.7728Z" fill="#E7E7E7"/>
<path d="M147.447 38.9968C147.236 38.9939 147.035 38.9278 146.887 38.8128C146.739 38.6978 146.656 38.543 146.656 38.3819V1.69767C146.64 1.61073 146.649 1.52226 146.682 1.43822C146.715 1.35418 146.772 1.2765 146.847 1.21042C146.923 1.14433 147.016 1.09136 147.121 1.05507C147.226 1.01878 147.339 1 147.454 1C147.569 1 147.683 1.01878 147.788 1.05507C147.892 1.09136 147.986 1.14433 148.061 1.21042C148.137 1.2765 148.193 1.35418 148.226 1.43822C148.259 1.52226 148.268 1.61073 148.253 1.69767V38.3819C148.253 38.545 148.168 38.7014 148.017 38.8167C147.866 38.932 147.661 38.9968 147.447 38.9968Z" fill="#E7E7E7"/>
<path d="M135.989 31.3197C135.776 31.3197 135.571 31.2549 135.42 31.1396C135.268 31.0243 135.184 30.8679 135.184 30.7048V7.35929C135.198 7.20406 135.29 7.05891 135.439 6.95309C135.589 6.84727 135.785 6.78865 135.989 6.78906C136.199 6.78906 136.4 6.85267 136.549 6.9659C136.697 7.07913 136.781 7.2327 136.781 7.39283V30.7048C136.781 30.866 136.698 31.0207 136.55 31.1357C136.402 31.2507 136.201 31.3168 135.989 31.3197Z" fill="#E7E7E7"/>
<path d="M124.846 24.7728C124.741 24.7728 124.637 24.7569 124.54 24.7258C124.443 24.6948 124.355 24.6493 124.281 24.592C124.208 24.5348 124.15 24.4669 124.111 24.3924C124.072 24.3178 124.053 24.2381 124.055 24.1579V13.9163C124.055 13.837 124.075 13.7585 124.115 13.6852C124.155 13.612 124.213 13.5454 124.287 13.4893C124.36 13.4333 124.447 13.3888 124.543 13.3585C124.639 13.3281 124.742 13.3125 124.846 13.3125C125.057 13.3125 125.26 13.3757 125.411 13.4886C125.561 13.6016 125.648 13.7551 125.652 13.9163V24.1579C125.652 24.321 125.567 24.4774 125.416 24.5927C125.265 24.708 125.06 24.7728 124.846 24.7728Z" fill="#E7E7E7"/>
<path d="M158.557 32.3208C158.346 32.3179 158.144 32.2518 157.996 32.1368C157.848 32.0218 157.766 31.867 157.766 31.7058V8.36034C157.792 8.21293 157.887 8.07777 158.034 7.97991C158.181 7.88205 158.369 7.82812 158.564 7.82812C158.759 7.82812 158.947 7.88205 159.094 7.97991C159.241 8.07777 159.336 8.21293 159.363 8.36034V31.7058C159.363 31.8689 159.278 32.0253 159.127 32.1407C158.975 32.256 158.77 32.3208 158.557 32.3208Z" fill="#E7E7E7"/>
<path d="M169.7 25.7684C169.487 25.7684 169.282 25.7036 169.131 25.5883C168.979 25.4729 168.895 25.3165 168.895 25.1534V14.9118C168.895 14.7487 168.979 14.5923 169.131 14.477C169.282 14.3617 169.487 14.2969 169.7 14.2969C169.914 14.2969 170.119 14.3617 170.27 14.477C170.421 14.5923 170.506 14.7487 170.506 14.9118V25.1534C170.506 25.3165 170.421 25.4729 170.27 25.5883C170.119 25.7036 169.914 25.7684 169.7 25.7684Z" fill="#E7E7E7"/>
<path d="M90.2194 37.9968C90.0057 37.9968 89.8007 37.932 89.6496 37.8167C89.4985 37.7014 89.4136 37.545 89.4136 37.3819V0.697674C89.3981 0.610728 89.4072 0.522262 89.4402 0.43822C89.4733 0.354178 89.5295 0.276505 89.6051 0.210419C89.6808 0.144332 89.7741 0.0913637 89.8788 0.0550705C89.9834 0.0187773 90.0971 0 90.2121 0C90.327 0 90.4407 0.0187773 90.5454 0.0550705C90.65 0.0913637 90.7433 0.144332 90.819 0.210419C90.8946 0.276505 90.9508 0.354178 90.9839 0.43822C91.0169 0.522262 91.026 0.610728 91.0105 0.697674V37.3819C91.0106 37.543 90.9277 37.6978 90.7797 37.8128C90.6318 37.9278 90.4306 37.9939 90.2194 37.9968Z" fill="#E7E7E7"/>
<path d="M67.7746 31.3208C67.5608 31.3208 67.3559 31.256 67.2048 31.1407C67.0536 31.0253 66.9687 30.8689 66.9688 30.7058V7.36034C66.995 7.21293 67.0903 7.07777 67.2372 6.97991C67.384 6.88205 67.5723 6.82812 67.7672 6.82812C67.9622 6.82812 68.1505 6.88205 68.2973 6.97991C68.4441 7.07777 68.5395 7.21293 68.5657 7.36034V30.7058C68.5658 30.867 68.4829 31.0218 68.3349 31.1368C68.1869 31.2518 67.9857 31.3179 67.7746 31.3208Z" fill="#E7E7E7"/>
<path d="M56.631 21.7329C56.4212 21.7329 56.2199 21.6693 56.0716 21.5561C55.9232 21.4428 55.8398 21.2893 55.8398 21.1291V16.9587C55.8398 16.7975 55.9227 16.6428 56.0707 16.5278C56.2186 16.4128 56.4198 16.3467 56.631 16.3438C56.8447 16.3438 57.0497 16.4085 57.2008 16.5239C57.3519 16.6392 57.4368 16.7956 57.4368 16.9587V21.1291C57.433 21.2903 57.3464 21.4438 57.1957 21.5567C57.045 21.6697 56.8422 21.7329 56.631 21.7329Z" fill="#E7E7E7"/>
<path d="M180.208 22.7329C179.997 22.7329 179.794 22.6697 179.643 22.5567C179.493 22.4438 179.406 22.2903 179.402 22.1291V17.9587C179.402 17.7956 179.487 17.6392 179.638 17.5239C179.789 17.4085 179.994 17.3438 180.208 17.3438C180.419 17.3467 180.621 17.4128 180.769 17.5278C180.916 17.6428 180.999 17.7975 180.999 17.9587V22.1291C180.999 22.2084 180.979 22.2869 180.939 22.3602C180.899 22.4334 180.841 22.5 180.768 22.5561C180.694 22.6121 180.607 22.6566 180.511 22.6869C180.415 22.7173 180.312 22.7329 180.208 22.7329Z" fill="#E7E7E7"/>
<path d="M78.9113 24.7728C78.6976 24.7728 78.4926 24.708 78.3415 24.5927C78.1904 24.4774 78.1055 24.321 78.1055 24.1579V13.9163C78.1093 13.7551 78.1959 13.6016 78.3466 13.4886C78.4973 13.3757 78.7001 13.3125 78.9113 13.3125C79.1211 13.3125 79.3223 13.3761 79.4707 13.4893C79.6191 13.6026 79.7024 13.7561 79.7024 13.9163V24.1579C79.7044 24.2381 79.6854 24.3178 79.6465 24.3924C79.6076 24.4669 79.5496 24.5348 79.476 24.592C79.4023 24.6493 79.3144 24.6948 79.2175 24.7258C79.1205 24.7569 79.0164 24.7728 78.9113 24.7728Z" fill="#E7E7E7"/>
<path d="M101.311 31.3208C101.1 31.3179 100.898 31.2518 100.75 31.1368C100.602 31.0218 100.519 30.867 100.52 30.7058V7.36034C100.546 7.21293 100.641 7.07777 100.788 6.97991C100.935 6.88205 101.123 6.82812 101.318 6.82812C101.513 6.82812 101.701 6.88205 101.848 6.97991C101.995 7.07777 102.09 7.21293 102.116 7.36034V30.7058C102.116 30.8689 102.032 31.0253 101.88 31.1407C101.729 31.256 101.524 31.3208 101.311 31.3208Z" fill="#E7E7E7"/>
<path d="M113.091 28.0434C112.877 28.0434 112.672 27.9786 112.521 27.8632C112.37 27.7479 112.285 27.5915 112.285 27.4284V10.6572C112.311 10.5098 112.407 10.3746 112.554 10.2768C112.7 10.1789 112.889 10.125 113.084 10.125C113.279 10.125 113.467 10.1789 113.614 10.2768C113.761 10.3746 113.856 10.5098 113.882 10.6572V27.4284C113.882 27.5896 113.799 27.7443 113.651 27.8593C113.503 27.9743 113.302 28.0404 113.091 28.0434Z" fill="#E7E7E7"/>
</svg>
