<svg width="82" height="18" viewBox="0 0 82 18" fill="none" xmlns="http://www.w3.org/2000/svg">
<path d="M10.619 17.1221C10.5221 17.1221 10.4293 17.0929 10.3608 17.041C10.2924 16.989 10.2539 16.9185 10.2539 16.8451V0.315659C10.2539 0.242172 10.2924 0.171694 10.3608 0.119731C10.4293 0.067767 10.5221 0.0385742 10.619 0.0385742C10.6666 0.038568 10.7138 0.0457681 10.7577 0.0597538C10.8016 0.0737394 10.8414 0.0942299 10.8748 0.120028C10.9082 0.145826 10.9344 0.176414 10.952 0.210004C10.9697 0.243594 10.9783 0.279512 10.9774 0.315659V16.8451C10.9774 16.9177 10.9399 16.9874 10.8728 17.0392C10.8058 17.091 10.7146 17.1208 10.619 17.1221Z" fill="url(#paint0_linear_374_66)"/>
<path d="M5.40921 14.6577C5.31354 14.6564 5.22238 14.6266 5.15535 14.5748C5.08832 14.5229 5.05077 14.4532 5.05078 14.3806V3.86143C5.05588 3.79193 5.09588 3.72655 5.16255 3.67876C5.22922 3.63096 5.3175 3.60439 5.40921 3.60449C5.50489 3.60448 5.59675 3.63298 5.66503 3.68386C5.7333 3.73474 5.77253 3.80393 5.77427 3.87654V14.3806C5.77427 14.417 5.76483 14.453 5.74648 14.4866C5.72814 14.5202 5.70125 14.5508 5.66735 14.5765C5.63345 14.6022 5.5932 14.6227 5.54891 14.6366C5.50462 14.6505 5.45715 14.6577 5.40921 14.6577Z" fill="url(#paint1_linear_374_66)"/>
<path d="M0.365127 11.7079C0.316938 11.7085 0.269063 11.7018 0.224364 11.6882C0.179665 11.6745 0.139061 11.6541 0.104981 11.6282C0.0709003 11.6024 0.0440433 11.5715 0.026016 11.5376C0.00798878 11.5037 -0.000838327 11.4673 6.26342e-05 11.4308V6.81604C5.44659e-05 6.77989 0.00954074 6.74409 0.027967 6.71075C0.0463933 6.67742 0.07339 6.6472 0.107379 6.62187C0.141368 6.59654 0.181668 6.57661 0.225924 6.56324C0.270179 6.54986 0.317502 6.54332 0.365127 6.54399C0.412196 6.54399 0.458805 6.55103 0.502291 6.5647C0.545778 6.57837 0.58529 6.59841 0.618573 6.62367C0.651856 6.64893 0.678258 6.67893 0.696271 6.71193C0.714283 6.74494 0.723554 6.78031 0.723554 6.81604V11.4308C0.724436 11.4669 0.715817 11.5028 0.6982 11.5364C0.680582 11.57 0.65432 11.6006 0.620949 11.6264C0.587578 11.6522 0.547767 11.6727 0.503842 11.6867C0.459917 11.7007 0.41276 11.7079 0.365127 11.7079Z" fill="url(#paint2_linear_374_66)"/>
<path d="M15.6395 14.1123C15.5915 14.1123 15.5441 14.1051 15.4998 14.0912C15.4555 14.0772 15.4152 14.0568 15.3813 14.0311C15.3474 14.0054 15.3205 13.9748 15.3022 13.9412C15.2839 13.9076 15.2744 13.8716 15.2744 13.8352V3.31602C15.2811 3.24608 15.3225 3.18067 15.3903 3.13299C15.458 3.08531 15.5471 3.0589 15.6395 3.05908C15.7345 3.05908 15.8257 3.08774 15.8929 3.13876C15.9601 3.18978 15.9979 3.25898 15.9979 3.33113V13.8352C15.9979 13.9078 15.9604 13.9775 15.8933 14.0293C15.8263 14.0812 15.7351 14.1109 15.6395 14.1123Z" fill="url(#paint3_linear_374_66)"/>
<path d="M20.6817 11.1624C20.6341 11.1624 20.5869 11.1552 20.543 11.1412C20.4991 11.1272 20.4593 11.1067 20.4259 11.0809C20.3925 11.0551 20.3663 11.0246 20.3487 10.991C20.331 10.9574 20.3224 10.9215 20.3233 10.8853V6.27058C20.3233 6.19843 20.3611 6.12923 20.4283 6.07822C20.4955 6.0272 20.5867 5.99854 20.6817 5.99854C20.7774 5.99852 20.8693 6.02702 20.9376 6.0779C21.0058 6.12878 21.0451 6.19797 21.0468 6.27058V10.8853C21.0468 10.9588 21.0083 11.0293 20.9399 11.0812C20.8714 11.1332 20.7786 11.1624 20.6817 11.1624Z" fill="url(#paint4_linear_374_66)"/>
<path d="M66.7992 17.5715C66.7036 17.5702 66.6124 17.5404 66.5454 17.4886C66.4784 17.4368 66.4408 17.3671 66.4408 17.2944V0.765046C66.4338 0.725869 66.4379 0.686008 66.4529 0.64814C66.4679 0.610271 66.4933 0.575273 66.5276 0.545495C66.5619 0.515718 66.6041 0.491851 66.6516 0.475498C66.699 0.459144 66.7505 0.450684 66.8026 0.450684C66.8547 0.450684 66.9061 0.459144 66.9536 0.475498C67.001 0.491851 67.0433 0.515718 67.0775 0.545495C67.1118 0.575273 67.1373 0.610271 67.1522 0.64814C67.1672 0.686008 67.1713 0.725869 67.1643 0.765046V17.2944C67.1643 17.3679 67.1258 17.4384 67.0574 17.4904C66.9889 17.5423 66.8961 17.5715 66.7992 17.5715Z" fill="url(#paint5_linear_374_66)"/>
<path d="M61.6082 14.1123C61.5114 14.1123 61.4186 14.0831 61.3501 14.0311C61.2816 13.9791 61.2432 13.9087 61.2432 13.8352V3.31602C61.2499 3.24608 61.2913 3.18067 61.359 3.13299C61.4268 3.08531 61.5158 3.0589 61.6082 3.05908C61.7033 3.05908 61.7945 3.08774 61.8617 3.13876C61.9289 3.18978 61.9667 3.25898 61.9667 3.33113V13.8352C61.9667 13.9078 61.9291 13.9775 61.8621 14.0293C61.7951 14.0812 61.7039 14.1109 61.6082 14.1123Z" fill="url(#paint6_linear_374_66)"/>
<path d="M56.5606 11.1624C56.513 11.1624 56.4658 11.1552 56.4219 11.1412C56.378 11.1272 56.3382 11.1067 56.3048 11.0809C56.2714 11.0551 56.2452 11.0246 56.2276 10.991C56.2099 10.9574 56.2013 10.9215 56.2022 10.8853V6.27058C56.2022 6.23486 56.2115 6.19948 56.2295 6.16647C56.2475 6.13347 56.2739 6.10348 56.3072 6.07822C56.3405 6.05295 56.38 6.03292 56.4235 6.01924C56.467 6.00557 56.5136 5.99854 56.5606 5.99854C56.6563 5.99852 56.7482 6.02702 56.8165 6.0779C56.8847 6.12878 56.924 6.19797 56.9257 6.27058V10.8853C56.9257 10.9588 56.8872 11.0293 56.8188 11.0812C56.7503 11.1332 56.6575 11.1624 56.5606 11.1624Z" fill="url(#paint7_linear_374_66)"/>
<path d="M71.833 14.5634C71.7374 14.5621 71.6462 14.5323 71.5792 14.4805C71.5121 14.4287 71.4746 14.3589 71.4746 14.2863V3.76715C71.4865 3.70073 71.5297 3.63983 71.5962 3.59574C71.6627 3.55164 71.748 3.52734 71.8364 3.52734C71.9247 3.52734 72.01 3.55164 72.0765 3.59574C72.143 3.63983 72.1862 3.70073 72.1981 3.76715V14.2863C72.1981 14.3598 72.1596 14.4303 72.0912 14.4822C72.0227 14.5342 71.9299 14.5634 71.833 14.5634Z" fill="url(#paint8_linear_374_66)"/>
<path d="M76.8807 11.6108C76.7839 11.6108 76.691 11.5816 76.6226 11.5296C76.5541 11.4777 76.5156 11.4072 76.5156 11.3337V6.71898C76.5156 6.64549 76.5541 6.57501 76.6226 6.52305C76.691 6.47109 76.7839 6.44189 76.8807 6.44189C76.9775 6.44189 77.0704 6.47109 77.1388 6.52305C77.2073 6.57501 77.2458 6.64549 77.2458 6.71898V11.3337C77.2458 11.4072 77.2073 11.4777 77.1388 11.5296C77.0704 11.5816 76.9775 11.6108 76.8807 11.6108Z" fill="url(#paint9_linear_374_66)"/>
<path d="M40.8733 17.1208C40.7764 17.1208 40.6836 17.0916 40.6151 17.0397C40.5467 16.9877 40.5082 16.9172 40.5082 16.8438V0.314362C40.5012 0.275186 40.5053 0.235324 40.5203 0.197456C40.5353 0.159588 40.5607 0.124589 40.595 0.0948117C40.6293 0.0650342 40.6715 0.0411673 40.7189 0.024814C40.7664 0.00846079 40.8179 0 40.8699 0C40.922 0 40.9735 0.00846079 41.0209 0.024814C41.0684 0.0411673 41.1106 0.0650342 41.1449 0.0948117C41.1792 0.124589 41.2046 0.159588 41.2196 0.197456C41.2346 0.235324 41.2387 0.275186 41.2317 0.314362V16.8438C41.2317 16.9164 41.1942 16.9861 41.1271 17.0379C41.0601 17.0897 40.9689 17.1195 40.8733 17.1208Z" fill="url(#paint10_linear_374_66)"/>
<path d="M30.7049 14.1127C30.6081 14.1127 30.5152 14.0835 30.4468 14.0316C30.3783 13.9796 30.3398 13.9091 30.3398 13.8356V3.31647C30.3517 3.25005 30.3949 3.18915 30.4614 3.14505C30.528 3.10096 30.6133 3.07666 30.7016 3.07666C30.7899 3.07666 30.8752 3.10096 30.9417 3.14505C31.0083 3.18915 31.0515 3.25005 31.0633 3.31647V13.8356C31.0634 13.9083 31.0258 13.978 30.9588 14.0298C30.8917 14.0816 30.8006 14.1114 30.7049 14.1127Z" fill="url(#paint11_linear_374_66)"/>
<path d="M25.6563 9.79253C25.5612 9.79253 25.47 9.76387 25.4028 9.71285C25.3356 9.66183 25.2979 9.59264 25.2979 9.52048V7.64134C25.2978 7.56872 25.3354 7.499 25.4024 7.44717C25.4695 7.39535 25.5606 7.36558 25.6563 7.36426C25.7531 7.36426 25.846 7.39345 25.9144 7.44541C25.9829 7.49738 26.0213 7.56786 26.0213 7.64134V9.52048C26.0196 9.5931 25.9804 9.66229 25.9121 9.71316C25.8438 9.76404 25.752 9.79254 25.6563 9.79253Z" fill="url(#paint12_linear_374_66)"/>
<path d="M81.6414 10.2432C81.5458 10.2432 81.4539 10.2147 81.3856 10.1638C81.3173 10.113 81.2781 10.0438 81.2764 9.97117V8.09203C81.2764 8.01854 81.3148 7.94806 81.3833 7.8961C81.4518 7.84413 81.5446 7.81494 81.6414 7.81494C81.7371 7.81626 81.8283 7.84604 81.8953 7.89786C81.9623 7.94968 81.9999 8.0194 81.9999 8.09203V9.97117C81.9999 10.0069 81.9906 10.0423 81.9726 10.0753C81.9546 10.1083 81.9282 10.1383 81.8949 10.1635C81.8616 10.1888 81.8221 10.2088 81.7786 10.2225C81.7351 10.2362 81.6885 10.2432 81.6414 10.2432Z" fill="url(#paint13_linear_374_66)"/>
<path d="M35.7498 11.1624C35.653 11.1624 35.5602 11.1332 35.4917 11.0812C35.4232 11.0293 35.3848 10.9588 35.3848 10.8853V6.27058C35.3865 6.19797 35.4257 6.12878 35.494 6.0779C35.5623 6.02702 35.6541 5.99852 35.7498 5.99854C35.8449 5.99854 35.9361 6.0272 36.0033 6.07822C36.0705 6.12923 36.1083 6.19843 36.1083 6.27058V10.8853C36.1091 10.9215 36.1005 10.9574 36.0829 10.991C36.0653 11.0246 36.039 11.0551 36.0057 11.0809C35.9723 11.1067 35.9325 11.1272 35.8885 11.1412C35.8446 11.1552 35.7975 11.1624 35.7498 11.1624Z" fill="url(#paint14_linear_374_66)"/>
<path d="M45.8975 14.1127C45.8018 14.1114 45.7107 14.0816 45.6436 14.0298C45.5766 13.978 45.539 13.9083 45.5391 13.8356V3.31647C45.5509 3.25005 45.5941 3.18915 45.6607 3.14505C45.7272 3.10096 45.8125 3.07666 45.9008 3.07666C45.9891 3.07666 46.0744 3.10096 46.141 3.14505C46.2075 3.18915 46.2507 3.25005 46.2626 3.31647V13.8356C46.2626 13.9091 46.2241 13.9796 46.1556 14.0316C46.0872 14.0835 45.9943 14.1127 45.8975 14.1127Z" fill="url(#paint15_linear_374_66)"/>
<path d="M51.2352 12.6358C51.1384 12.6358 51.0455 12.6066 50.977 12.5546C50.9086 12.5027 50.8701 12.4322 50.8701 12.3587V4.80182C50.882 4.7354 50.9252 4.6745 50.9917 4.6304C51.0582 4.58631 51.1435 4.56201 51.2319 4.56201C51.3202 4.56201 51.4055 4.58631 51.472 4.6304C51.5385 4.6745 51.5817 4.7354 51.5936 4.80182V12.3587C51.5936 12.4313 51.5561 12.501 51.489 12.5529C51.422 12.6047 51.3308 12.6345 51.2352 12.6358Z" fill="url(#paint16_linear_374_66)"/>
<defs>
<linearGradient id="paint0_linear_374_66" x1="10.6157" y1="0.0385742" x2="10.6157" y2="17.1221" gradientUnits="userSpaceOnUse">
<stop stop-color="#7D7D7D"/>
<stop offset="1" stop-color="#444444" stop-opacity="0.6"/>
</linearGradient>
<linearGradient id="paint1_linear_374_66" x1="5.41253" y1="3.60449" x2="5.41253" y2="14.6577" gradientUnits="userSpaceOnUse">
<stop stop-color="#7D7D7D"/>
<stop offset="1" stop-color="#444444" stop-opacity="0.6"/>
</linearGradient>
<linearGradient id="paint2_linear_374_66" x1="0.361808" y1="6.54395" x2="0.361808" y2="11.7079" gradientUnits="userSpaceOnUse">
<stop stop-color="#7D7D7D"/>
<stop offset="1" stop-color="#444444" stop-opacity="0.6"/>
</linearGradient>
<linearGradient id="paint3_linear_374_66" x1="15.6362" y1="3.05908" x2="15.6362" y2="14.1123" gradientUnits="userSpaceOnUse">
<stop stop-color="#7D7D7D"/>
<stop offset="1" stop-color="#444444" stop-opacity="0.6"/>
</linearGradient>
<linearGradient id="paint4_linear_374_66" x1="20.685" y1="5.99854" x2="20.685" y2="11.1624" gradientUnits="userSpaceOnUse">
<stop stop-color="#7D7D7D"/>
<stop offset="1" stop-color="#444444" stop-opacity="0.6"/>
</linearGradient>
<linearGradient id="paint5_linear_374_66" x1="66.8026" y1="0.450684" x2="66.8026" y2="17.5715" gradientUnits="userSpaceOnUse">
<stop stop-color="#7D7D7D"/>
<stop offset="1" stop-color="#444444" stop-opacity="0.6"/>
</linearGradient>
<linearGradient id="paint6_linear_374_66" x1="61.6049" y1="3.05908" x2="61.6049" y2="14.1123" gradientUnits="userSpaceOnUse">
<stop stop-color="#7D7D7D"/>
<stop offset="1" stop-color="#444444" stop-opacity="0.6"/>
</linearGradient>
<linearGradient id="paint7_linear_374_66" x1="56.5639" y1="5.99854" x2="56.5639" y2="11.1624" gradientUnits="userSpaceOnUse">
<stop stop-color="#7D7D7D"/>
<stop offset="1" stop-color="#444444" stop-opacity="0.6"/>
</linearGradient>
<linearGradient id="paint8_linear_374_66" x1="71.8364" y1="3.52734" x2="71.8364" y2="14.5634" gradientUnits="userSpaceOnUse">
<stop stop-color="#7D7D7D"/>
<stop offset="1" stop-color="#444444" stop-opacity="0.6"/>
</linearGradient>
<linearGradient id="paint9_linear_374_66" x1="76.8807" y1="6.44189" x2="76.8807" y2="11.6108" gradientUnits="userSpaceOnUse">
<stop stop-color="#7D7D7D"/>
<stop offset="1" stop-color="#444444" stop-opacity="0.6"/>
</linearGradient>
<linearGradient id="paint10_linear_374_66" x1="40.8699" y1="0" x2="40.8699" y2="17.1208" gradientUnits="userSpaceOnUse">
<stop stop-color="#7D7D7D"/>
<stop offset="1" stop-color="#444444" stop-opacity="0.6"/>
</linearGradient>
<linearGradient id="paint11_linear_374_66" x1="30.7016" y1="3.07666" x2="30.7016" y2="14.1127" gradientUnits="userSpaceOnUse">
<stop stop-color="#7D7D7D"/>
<stop offset="1" stop-color="#444444" stop-opacity="0.6"/>
</linearGradient>
<linearGradient id="paint12_linear_374_66" x1="25.6596" y1="7.36426" x2="25.6596" y2="9.79253" gradientUnits="userSpaceOnUse">
<stop stop-color="#7D7D7D"/>
<stop offset="1" stop-color="#444444" stop-opacity="0.6"/>
</linearGradient>
<linearGradient id="paint13_linear_374_66" x1="81.6381" y1="7.81494" x2="81.6381" y2="10.2432" gradientUnits="userSpaceOnUse">
<stop stop-color="#7D7D7D"/>
<stop offset="1" stop-color="#444444" stop-opacity="0.6"/>
</linearGradient>
<linearGradient id="paint14_linear_374_66" x1="35.7465" y1="5.99854" x2="35.7465" y2="11.1624" gradientUnits="userSpaceOnUse">
<stop stop-color="#7D7D7D"/>
<stop offset="1" stop-color="#444444" stop-opacity="0.6"/>
</linearGradient>
<linearGradient id="paint15_linear_374_66" x1="45.9008" y1="3.07666" x2="45.9008" y2="14.1127" gradientUnits="userSpaceOnUse">
<stop stop-color="#7D7D7D"/>
<stop offset="1" stop-color="#444444" stop-opacity="0.6"/>
</linearGradient>
<linearGradient id="paint16_linear_374_66" x1="51.2319" y1="4.56201" x2="51.2319" y2="12.6358" gradientUnits="userSpaceOnUse">
<stop stop-color="#7D7D7D"/>
<stop offset="1" stop-color="#444444" stop-opacity="0.6"/>
</linearGradient>
</defs>
</svg>
