<svg width="30" height="31" viewBox="0 0 30 31" fill="none" xmlns="http://www.w3.org/2000/svg">
<path d="M5.09181 25.3767C2.28845 22.4733 0.884039 19.0007 0.878573 14.9589C0.873107 10.9172 2.26827 7.5466 5.06404 4.84719L6.50462 3.45627L1.37564 3.26938L1.37225 0.767347L10.925 1.11542L10.9379 10.6745L8.43753 10.5834L8.43059 5.45099L6.99001 6.84191C4.70644 9.04678 3.56686 11.7852 3.57129 15.057C3.57571 18.3289 4.72281 21.1506 7.01257 23.5221C7.63316 24.1649 8.27501 24.7229 8.93811 25.1961C9.60121 25.6693 10.2856 26.0578 10.9912 26.3615L10.9949 29.1201C9.79768 28.7344 8.71782 28.2246 7.75533 27.5908C6.79283 26.9569 5.90499 26.2189 5.09181 25.3767ZM19.7787 29.7609L19.7658 20.2019L22.3303 20.2953L22.3371 25.3636L23.6497 24.0963C25.9332 21.8914 27.0728 19.153 27.0684 15.8811C27.064 12.6092 25.9169 9.78755 23.6271 7.41605C23.0065 6.7733 22.3593 6.22047 21.6856 5.75755C21.0118 5.29463 20.3434 4.89071 19.6805 4.5458L19.6768 1.78715C20.874 2.17291 21.9485 2.68786 22.9003 3.33198C23.8522 3.9761 24.7347 4.71927 25.5479 5.56149C28.3512 8.46492 29.7556 11.9375 29.7611 15.9793C29.7666 20.021 28.3714 23.3916 25.5756 26.091L24.1991 27.4201L29.3281 27.607L29.3314 30.109L19.7787 29.7609Z" fill="#D8BE69"/>
</svg>
