<svg width="36" height="36" viewBox="0 0 36 36" fill="none" xmlns="http://www.w3.org/2000/svg">
<mask id="path-1-outside-1_18_213" maskUnits="userSpaceOnUse" x="6.29053" y="5.71069" width="24" height="25" fill="black">
<rect fill="white" x="6.29053" y="5.71069" width="24" height="25"/>
<path d="M19.3107 29.289H16.6923C15.5401 29.289 14.6029 28.3517 14.6029 27.1993C14.6029 26.6979 14.3252 26.2441 13.8783 26.0144C13.6218 25.8825 13.3668 25.7356 13.1208 25.5772C12.6992 25.306 12.1688 25.2927 11.7355 25.5432C10.737 26.1194 9.45637 25.7764 8.88064 24.7781L7.57164 22.5104C7.29284 22.0268 7.21841 21.4642 7.36273 20.9247C7.50704 20.3855 7.8527 19.9347 8.33626 19.6555C8.76995 19.405 9.0242 18.9384 9.00002 18.4385C8.98604 18.1468 8.98604 17.8525 9.00002 17.5639C9.02457 17.0617 8.77033 16.5943 8.33702 16.3442C8.33437 16.3427 8.33135 16.3408 8.32871 16.3389C7.8493 16.0597 7.50666 15.6112 7.36273 15.0747C7.21804 14.5355 7.29246 13.9726 7.57126 13.489L8.88026 11.2212C9.15944 10.738 9.61013 10.3923 10.1492 10.2476C10.6887 10.1028 11.2512 10.1769 11.7348 10.4565C12.1681 10.7062 12.709 10.6874 13.1465 10.4078C13.261 10.3345 13.3773 10.2634 13.496 10.195C13.6142 10.1267 13.734 10.0613 13.8545 9.99895C14.3161 9.76016 14.6029 9.30072 14.6029 8.80047C14.6029 7.64847 15.5401 6.71069 16.6923 6.71069H19.3107C20.463 6.71069 21.4002 7.64809 21.4002 8.80047C21.4002 9.30223 21.6779 9.756 22.1248 9.98572C22.3847 10.1195 22.6397 10.2664 22.8822 10.4232C23.3027 10.6942 23.8343 10.7074 24.2676 10.4569C24.2717 10.4546 24.2755 10.4523 24.2793 10.4501C24.7598 10.1761 25.3189 10.1044 25.8535 10.2476C26.3926 10.3923 26.8433 10.738 27.1224 11.2212L28.4314 13.489C28.7106 13.9726 28.7847 14.5355 28.6404 15.0747C28.4957 15.6139 28.1504 16.0646 27.6668 16.3438C27.2327 16.5943 26.9785 17.0606 27.0031 17.5612C27.017 17.848 27.017 18.1419 27.0031 18.4351C26.9785 18.9376 27.2324 19.405 27.6661 19.6555C28.6645 20.2325 29.0076 21.5129 28.4318 22.5108L27.1228 24.7789C26.5471 25.7764 25.2668 26.1191 24.2683 25.544C23.8358 25.2939 23.2944 25.3124 22.8562 25.5927C22.7425 25.6657 22.6261 25.7367 22.5079 25.8051C22.3885 25.8738 22.2687 25.9388 22.149 26.0012C21.6866 26.24 21.3998 26.699 21.3998 27.1996C21.4002 28.3513 20.463 29.289 19.3107 29.289ZM12.4008 24.6081C12.7933 24.6081 13.185 24.72 13.53 24.9417C13.7547 25.0868 13.9882 25.2213 14.2236 25.3419C14.9236 25.7019 15.3584 26.413 15.3584 27.1981C15.3584 27.9341 15.9568 28.5334 16.6927 28.5334H19.3111C20.0466 28.5334 20.6454 27.9349 20.6454 27.1989C20.6454 26.4149 21.0886 25.6985 21.8022 25.3298C21.9117 25.2731 22.0217 25.213 22.1308 25.1503C22.2378 25.0883 22.3447 25.0233 22.4489 24.9565C23.1259 24.5231 23.9676 24.4982 24.6461 24.8892C25.2823 25.2565 26.1009 25.0381 26.4685 24.4011L27.7775 22.133C27.9554 21.8243 28.003 21.4646 27.9109 21.1204C27.8183 20.7758 27.5977 20.4883 27.289 20.3099C26.6083 19.9166 26.2101 19.1844 26.2483 18.3981C26.2611 18.1295 26.2611 17.8601 26.2483 17.5975C26.2101 16.8131 26.609 16.082 27.2883 15.6898C27.5977 15.5111 27.8187 15.2236 27.9109 14.879C28.003 14.5348 27.9554 14.1751 27.7775 13.8664L26.4685 11.5987C26.2906 11.29 26.0027 11.0693 25.6582 10.9771C25.3133 10.8846 24.954 10.9322 24.6457 11.1105C24.6416 11.1128 24.6378 11.1151 24.634 11.1169C23.9559 11.5027 23.1293 11.4804 22.4735 11.0576C22.251 10.9144 22.0179 10.7795 21.7799 10.6571C21.0799 10.2974 20.645 9.58636 20.645 8.80085C20.645 8.06408 20.0466 7.4656 19.3107 7.4656H16.6923C15.9568 7.4656 15.358 8.06446 15.358 8.80009C15.358 9.58409 14.9149 10.3005 14.2013 10.6696C14.0913 10.7266 13.9822 10.786 13.8737 10.8487C13.7649 10.9114 13.6584 10.9764 13.5541 11.0429C12.8779 11.4763 12.0358 11.502 11.357 11.1101C11.0483 10.9322 10.6891 10.8846 10.3445 10.9768C10.0004 11.069 9.71251 11.2896 9.5342 11.5983L8.22519 13.866C8.04726 14.1747 7.99966 14.5344 8.09184 14.8786C8.18402 15.2228 8.40502 15.5107 8.71366 15.6887C8.71631 15.6902 8.71933 15.6921 8.72197 15.694C9.39706 16.0877 9.79222 16.8169 9.75406 17.6001C9.74084 17.8646 9.74084 18.1344 9.75406 18.4015C9.79222 19.1855 9.39329 19.9166 8.71404 20.3092C8.07673 20.6772 7.85724 21.4948 8.22557 22.1322L9.53457 24.3999C9.90215 25.0373 10.7197 25.2561 11.3574 24.8885C11.6822 24.7014 12.0419 24.6081 12.4008 24.6081ZM18.01 23.2283C17.5559 23.2283 17.0992 23.1686 16.6489 23.0481C15.3006 22.6868 14.1737 21.822 13.4756 20.6129C12.7778 19.4039 12.5923 17.9957 12.9535 16.6472C13.3146 15.2988 14.1794 14.1717 15.3883 13.4735C16.5968 12.7752 18.0055 12.5901 19.3538 12.9513C20.7021 13.3125 21.8286 14.1774 22.5268 15.3864C23.2245 16.5955 23.41 18.0036 23.0485 19.3525C22.6873 20.701 21.8226 21.8277 20.6137 22.5259C19.8094 22.991 18.9156 23.2283 18.01 23.2283ZM17.9945 13.5267C17.2197 13.5267 16.4555 13.7296 15.7664 14.1279C14.7321 14.7248 13.9927 15.6891 13.6833 16.8426C13.3743 17.9961 13.533 19.201 14.1303 20.2351C14.7271 21.2692 15.6912 22.009 16.8446 22.3181C17.9979 22.6272 19.2027 22.4688 20.2367 21.8715C21.2706 21.2745 22.0103 20.3103 22.3194 19.1568C22.6284 18.0033 22.4697 16.798 21.8728 15.7639C21.2759 14.7294 20.3118 13.99 19.1585 13.6805C18.7735 13.5781 18.3825 13.5267 17.9945 13.5267Z"/>
</mask>
<path d="M19.3107 29.289H16.6923C15.5401 29.289 14.6029 28.3517 14.6029 27.1993C14.6029 26.6979 14.3252 26.2441 13.8783 26.0144C13.6218 25.8825 13.3668 25.7356 13.1208 25.5772C12.6992 25.306 12.1688 25.2927 11.7355 25.5432C10.737 26.1194 9.45637 25.7764 8.88064 24.7781L7.57164 22.5104C7.29284 22.0268 7.21841 21.4642 7.36273 20.9247C7.50704 20.3855 7.8527 19.9347 8.33626 19.6555C8.76995 19.405 9.0242 18.9384 9.00002 18.4385C8.98604 18.1468 8.98604 17.8525 9.00002 17.5639C9.02457 17.0617 8.77033 16.5943 8.33702 16.3442C8.33437 16.3427 8.33135 16.3408 8.32871 16.3389C7.8493 16.0597 7.50666 15.6112 7.36273 15.0747C7.21804 14.5355 7.29246 13.9726 7.57126 13.489L8.88026 11.2212C9.15944 10.738 9.61013 10.3923 10.1492 10.2476C10.6887 10.1028 11.2512 10.1769 11.7348 10.4565C12.1681 10.7062 12.709 10.6874 13.1465 10.4078C13.261 10.3345 13.3773 10.2634 13.496 10.195C13.6142 10.1267 13.734 10.0613 13.8545 9.99895C14.3161 9.76016 14.6029 9.30072 14.6029 8.80047C14.6029 7.64847 15.5401 6.71069 16.6923 6.71069H19.3107C20.463 6.71069 21.4002 7.64809 21.4002 8.80047C21.4002 9.30223 21.6779 9.756 22.1248 9.98572C22.3847 10.1195 22.6397 10.2664 22.8822 10.4232C23.3027 10.6942 23.8343 10.7074 24.2676 10.4569C24.2717 10.4546 24.2755 10.4523 24.2793 10.4501C24.7598 10.1761 25.3189 10.1044 25.8535 10.2476C26.3926 10.3923 26.8433 10.738 27.1224 11.2212L28.4314 13.489C28.7106 13.9726 28.7847 14.5355 28.6404 15.0747C28.4957 15.6139 28.1504 16.0646 27.6668 16.3438C27.2327 16.5943 26.9785 17.0606 27.0031 17.5612C27.017 17.848 27.017 18.1419 27.0031 18.4351C26.9785 18.9376 27.2324 19.405 27.6661 19.6555C28.6645 20.2325 29.0076 21.5129 28.4318 22.5108L27.1228 24.7789C26.5471 25.7764 25.2668 26.1191 24.2683 25.544C23.8358 25.2939 23.2944 25.3124 22.8562 25.5927C22.7425 25.6657 22.6261 25.7367 22.5079 25.8051C22.3885 25.8738 22.2687 25.9388 22.149 26.0012C21.6866 26.24 21.3998 26.699 21.3998 27.1996C21.4002 28.3513 20.463 29.289 19.3107 29.289ZM12.4008 24.6081C12.7933 24.6081 13.185 24.72 13.53 24.9417C13.7547 25.0868 13.9882 25.2213 14.2236 25.3419C14.9236 25.7019 15.3584 26.413 15.3584 27.1981C15.3584 27.9341 15.9568 28.5334 16.6927 28.5334H19.3111C20.0466 28.5334 20.6454 27.9349 20.6454 27.1989C20.6454 26.4149 21.0886 25.6985 21.8022 25.3298C21.9117 25.2731 22.0217 25.213 22.1308 25.1503C22.2378 25.0883 22.3447 25.0233 22.4489 24.9565C23.1259 24.5231 23.9676 24.4982 24.6461 24.8892C25.2823 25.2565 26.1009 25.0381 26.4685 24.4011L27.7775 22.133C27.9554 21.8243 28.003 21.4646 27.9109 21.1204C27.8183 20.7758 27.5977 20.4883 27.289 20.3099C26.6083 19.9166 26.2101 19.1844 26.2483 18.3981C26.2611 18.1295 26.2611 17.8601 26.2483 17.5975C26.2101 16.8131 26.609 16.082 27.2883 15.6898C27.5977 15.5111 27.8187 15.2236 27.9109 14.879C28.003 14.5348 27.9554 14.1751 27.7775 13.8664L26.4685 11.5987C26.2906 11.29 26.0027 11.0693 25.6582 10.9771C25.3133 10.8846 24.954 10.9322 24.6457 11.1105C24.6416 11.1128 24.6378 11.1151 24.634 11.1169C23.9559 11.5027 23.1293 11.4804 22.4735 11.0576C22.251 10.9144 22.0179 10.7795 21.7799 10.6571C21.0799 10.2974 20.645 9.58636 20.645 8.80085C20.645 8.06408 20.0466 7.4656 19.3107 7.4656H16.6923C15.9568 7.4656 15.358 8.06446 15.358 8.80009C15.358 9.58409 14.9149 10.3005 14.2013 10.6696C14.0913 10.7266 13.9822 10.786 13.8737 10.8487C13.7649 10.9114 13.6584 10.9764 13.5541 11.0429C12.8779 11.4763 12.0358 11.502 11.357 11.1101C11.0483 10.9322 10.6891 10.8846 10.3445 10.9768C10.0004 11.069 9.71251 11.2896 9.5342 11.5983L8.22519 13.866C8.04726 14.1747 7.99966 14.5344 8.09184 14.8786C8.18402 15.2228 8.40502 15.5107 8.71366 15.6887C8.71631 15.6902 8.71933 15.6921 8.72197 15.694C9.39706 16.0877 9.79222 16.8169 9.75406 17.6001C9.74084 17.8646 9.74084 18.1344 9.75406 18.4015C9.79222 19.1855 9.39329 19.9166 8.71404 20.3092C8.07673 20.6772 7.85724 21.4948 8.22557 22.1322L9.53457 24.3999C9.90215 25.0373 10.7197 25.2561 11.3574 24.8885C11.6822 24.7014 12.0419 24.6081 12.4008 24.6081ZM18.01 23.2283C17.5559 23.2283 17.0992 23.1686 16.6489 23.0481C15.3006 22.6868 14.1737 21.822 13.4756 20.6129C12.7778 19.4039 12.5923 17.9957 12.9535 16.6472C13.3146 15.2988 14.1794 14.1717 15.3883 13.4735C16.5968 12.7752 18.0055 12.5901 19.3538 12.9513C20.7021 13.3125 21.8286 14.1774 22.5268 15.3864C23.2245 16.5955 23.41 18.0036 23.0485 19.3525C22.6873 20.701 21.8226 21.8277 20.6137 22.5259C19.8094 22.991 18.9156 23.2283 18.01 23.2283ZM17.9945 13.5267C17.2197 13.5267 16.4555 13.7296 15.7664 14.1279C14.7321 14.7248 13.9927 15.6891 13.6833 16.8426C13.3743 17.9961 13.533 19.201 14.1303 20.2351C14.7271 21.2692 15.6912 22.009 16.8446 22.3181C17.9979 22.6272 19.2027 22.4688 20.2367 21.8715C21.2706 21.2745 22.0103 20.3103 22.3194 19.1568C22.6284 18.0033 22.4697 16.798 21.8728 15.7639C21.2759 14.7294 20.3118 13.99 19.1585 13.6805C18.7735 13.5781 18.3825 13.5267 17.9945 13.5267Z" fill="#D8BE69"/>
<path d="M19.3107 29.289H16.6923C15.5401 29.289 14.6029 28.3517 14.6029 27.1993C14.6029 26.6979 14.3252 26.2441 13.8783 26.0144C13.6218 25.8825 13.3668 25.7356 13.1208 25.5772C12.6992 25.306 12.1688 25.2927 11.7355 25.5432C10.737 26.1194 9.45637 25.7764 8.88064 24.7781L7.57164 22.5104C7.29284 22.0268 7.21841 21.4642 7.36273 20.9247C7.50704 20.3855 7.8527 19.9347 8.33626 19.6555C8.76995 19.405 9.0242 18.9384 9.00002 18.4385C8.98604 18.1468 8.98604 17.8525 9.00002 17.5639C9.02457 17.0617 8.77033 16.5943 8.33702 16.3442C8.33437 16.3427 8.33135 16.3408 8.32871 16.3389C7.8493 16.0597 7.50666 15.6112 7.36273 15.0747C7.21804 14.5355 7.29246 13.9726 7.57126 13.489L8.88026 11.2212C9.15944 10.738 9.61013 10.3923 10.1492 10.2476C10.6887 10.1028 11.2512 10.1769 11.7348 10.4565C12.1681 10.7062 12.709 10.6874 13.1465 10.4078C13.261 10.3345 13.3773 10.2634 13.496 10.195C13.6142 10.1267 13.734 10.0613 13.8545 9.99895C14.3161 9.76016 14.6029 9.30072 14.6029 8.80047C14.6029 7.64847 15.5401 6.71069 16.6923 6.71069H19.3107C20.463 6.71069 21.4002 7.64809 21.4002 8.80047C21.4002 9.30223 21.6779 9.756 22.1248 9.98572C22.3847 10.1195 22.6397 10.2664 22.8822 10.4232C23.3027 10.6942 23.8343 10.7074 24.2676 10.4569C24.2717 10.4546 24.2755 10.4523 24.2793 10.4501C24.7598 10.1761 25.3189 10.1044 25.8535 10.2476C26.3926 10.3923 26.8433 10.738 27.1224 11.2212L28.4314 13.489C28.7106 13.9726 28.7847 14.5355 28.6404 15.0747C28.4957 15.6139 28.1504 16.0646 27.6668 16.3438C27.2327 16.5943 26.9785 17.0606 27.0031 17.5612C27.017 17.848 27.017 18.1419 27.0031 18.4351C26.9785 18.9376 27.2324 19.405 27.6661 19.6555C28.6645 20.2325 29.0076 21.5129 28.4318 22.5108L27.1228 24.7789C26.5471 25.7764 25.2668 26.1191 24.2683 25.544C23.8358 25.2939 23.2944 25.3124 22.8562 25.5927C22.7425 25.6657 22.6261 25.7367 22.5079 25.8051C22.3885 25.8738 22.2687 25.9388 22.149 26.0012C21.6866 26.24 21.3998 26.699 21.3998 27.1996C21.4002 28.3513 20.463 29.289 19.3107 29.289ZM12.4008 24.6081C12.7933 24.6081 13.185 24.72 13.53 24.9417C13.7547 25.0868 13.9882 25.2213 14.2236 25.3419C14.9236 25.7019 15.3584 26.413 15.3584 27.1981C15.3584 27.9341 15.9568 28.5334 16.6927 28.5334H19.3111C20.0466 28.5334 20.6454 27.9349 20.6454 27.1989C20.6454 26.4149 21.0886 25.6985 21.8022 25.3298C21.9117 25.2731 22.0217 25.213 22.1308 25.1503C22.2378 25.0883 22.3447 25.0233 22.4489 24.9565C23.1259 24.5231 23.9676 24.4982 24.6461 24.8892C25.2823 25.2565 26.1009 25.0381 26.4685 24.4011L27.7775 22.133C27.9554 21.8243 28.003 21.4646 27.9109 21.1204C27.8183 20.7758 27.5977 20.4883 27.289 20.3099C26.6083 19.9166 26.2101 19.1844 26.2483 18.3981C26.2611 18.1295 26.2611 17.8601 26.2483 17.5975C26.2101 16.8131 26.609 16.082 27.2883 15.6898C27.5977 15.5111 27.8187 15.2236 27.9109 14.879C28.003 14.5348 27.9554 14.1751 27.7775 13.8664L26.4685 11.5987C26.2906 11.29 26.0027 11.0693 25.6582 10.9771C25.3133 10.8846 24.954 10.9322 24.6457 11.1105C24.6416 11.1128 24.6378 11.1151 24.634 11.1169C23.9559 11.5027 23.1293 11.4804 22.4735 11.0576C22.251 10.9144 22.0179 10.7795 21.7799 10.6571C21.0799 10.2974 20.645 9.58636 20.645 8.80085C20.645 8.06408 20.0466 7.4656 19.3107 7.4656H16.6923C15.9568 7.4656 15.358 8.06446 15.358 8.80009C15.358 9.58409 14.9149 10.3005 14.2013 10.6696C14.0913 10.7266 13.9822 10.786 13.8737 10.8487C13.7649 10.9114 13.6584 10.9764 13.5541 11.0429C12.8779 11.4763 12.0358 11.502 11.357 11.1101C11.0483 10.9322 10.6891 10.8846 10.3445 10.9768C10.0004 11.069 9.71251 11.2896 9.5342 11.5983L8.22519 13.866C8.04726 14.1747 7.99966 14.5344 8.09184 14.8786C8.18402 15.2228 8.40502 15.5107 8.71366 15.6887C8.71631 15.6902 8.71933 15.6921 8.72197 15.694C9.39706 16.0877 9.79222 16.8169 9.75406 17.6001C9.74084 17.8646 9.74084 18.1344 9.75406 18.4015C9.79222 19.1855 9.39329 19.9166 8.71404 20.3092C8.07673 20.6772 7.85724 21.4948 8.22557 22.1322L9.53457 24.3999C9.90215 25.0373 10.7197 25.2561 11.3574 24.8885C11.6822 24.7014 12.0419 24.6081 12.4008 24.6081ZM18.01 23.2283C17.5559 23.2283 17.0992 23.1686 16.6489 23.0481C15.3006 22.6868 14.1737 21.822 13.4756 20.6129C12.7778 19.4039 12.5923 17.9957 12.9535 16.6472C13.3146 15.2988 14.1794 14.1717 15.3883 13.4735C16.5968 12.7752 18.0055 12.5901 19.3538 12.9513C20.7021 13.3125 21.8286 14.1774 22.5268 15.3864C23.2245 16.5955 23.41 18.0036 23.0485 19.3525C22.6873 20.701 21.8226 21.8277 20.6137 22.5259C19.8094 22.991 18.9156 23.2283 18.01 23.2283ZM17.9945 13.5267C17.2197 13.5267 16.4555 13.7296 15.7664 14.1279C14.7321 14.7248 13.9927 15.6891 13.6833 16.8426C13.3743 17.9961 13.533 19.201 14.1303 20.2351C14.7271 21.2692 15.6912 22.009 16.8446 22.3181C17.9979 22.6272 19.2027 22.4688 20.2367 21.8715C21.2706 21.2745 22.0103 20.3103 22.3194 19.1568C22.6284 18.0033 22.4697 16.798 21.8728 15.7639C21.2759 14.7294 20.3118 13.99 19.1585 13.6805C18.7735 13.5781 18.3825 13.5267 17.9945 13.5267Z" stroke="#D8BE69" stroke-width="1.2" mask="url(#path-1-outside-1_18_213)"/>
<path d="M13.8774 2.60561C17.9901 1.50404 22.2833 2.06946 25.9695 4.19803L25.9696 4.19812C26.2929 4.38451 26.708 4.2744 26.8953 3.94994L26.8955 3.94971C27.0823 3.62542 26.9714 3.21121 26.6473 3.02404L26.6473 3.02403C22.6483 0.714995 17.9874 0.101194 13.5268 1.29646C9.06617 2.49173 5.33657 5.35383 3.02785 9.3533C-0.228926 14.995 -0.0577809 21.9048 3.47441 27.3836C3.60435 27.5856 3.82327 27.6943 4.04436 27.6943C4.17052 27.6943 4.29838 27.6588 4.41129 27.5857C4.72508 27.3829 4.81575 26.9637 4.61313 26.6492L4.61308 26.6491C1.35706 21.5986 1.1992 15.2316 4.20141 10.0311C6.33009 6.344 9.76541 3.70755 13.8774 2.60561ZM13.8774 2.60561L13.7997 2.31583M13.8774 2.60561L13.7997 2.31583M13.7997 2.31583C9.61093 3.43836 6.11005 6.12511 3.9416 9.88112C0.883108 15.179 1.04404 21.6668 4.36094 26.8117L3.72665 27.2212C0.25524 21.8368 0.0871286 15.0476 3.28767 9.50329C5.55661 5.57272 9.22068 2.76091 13.6044 1.58624C17.9882 0.411567 22.5672 1.01458 26.4973 3.28383C26.6778 3.38811 26.7398 3.61896 26.6355 3.79994C26.5313 3.98055 26.2997 4.04213 26.1195 3.93823C22.3644 1.76987 17.9893 1.19367 13.7997 2.31583Z" fill="#D8BE69" stroke="#D8BE69" stroke-width="0.6"/>
<path d="M9.35662 32.9763L9.35663 32.9763C12.02 34.5142 14.9768 35.3001 17.9742 35.3001C19.4762 35.3001 20.988 35.1024 22.4767 34.7038L22.4767 34.7038C26.9374 33.5086 30.667 30.6461 32.9757 26.6462C35.9208 21.5446 36.076 15.3623 33.3906 10.1111L33.3905 10.1109C33.2199 9.77787 32.8115 9.64577 32.4786 9.8167C32.1449 9.98727 32.0141 10.3955 32.1838 10.7282L32.1839 10.7285C34.6597 15.5695 34.5169 21.2662 31.8021 25.9688C29.6734 29.6559 26.2381 32.2928 22.1261 33.3947C18.0145 34.4963 13.721 33.9316 10.0345 31.8023L10.0342 31.8021C9.70916 31.6149 9.29557 31.7258 9.10843 32.0506C8.92161 32.3749 9.03251 32.7891 9.35662 32.9763Z" fill="#D8BE69" stroke="#D8BE69" stroke-width="0.6"/>
<path d="M26.8954 3.94943L26.8954 3.94949C26.7195 4.25418 26.6731 4.60759 26.764 4.94724L26.7641 4.9473C26.8549 5.28706 27.072 5.56984 27.3763 5.74543C28.0041 6.10764 28.8094 5.89179 29.1724 5.26436C29.3483 4.95972 29.3947 4.6063 29.3041 4.26655C29.2128 3.92657 28.996 3.64393 28.6919 3.46847L26.8954 3.94943ZM26.8954 3.94943C27.1379 3.52913 27.5804 3.29246 28.0367 3.29246M26.8954 3.94943L28.0367 3.29246M28.0367 3.29246C28.2591 3.29246 28.4844 3.34885 28.6918 3.46842L28.0367 3.29246ZM26.6986 6.9195L26.6987 6.91951C27.1093 7.15651 27.5664 7.27819 28.0299 7.27819C28.262 7.27819 28.4951 7.24794 28.7249 7.18634L28.725 7.18633C29.4131 7.00172 29.9892 6.55925 30.3459 5.94233L30.346 5.9422C30.7024 5.32499 30.797 4.60421 30.6129 3.91616L30.6128 3.91604C30.4283 3.22763 29.9864 2.65083 29.3688 2.29435L29.3687 2.29431C28.0936 1.55876 26.4575 1.99607 25.7211 3.27165C25.3646 3.88889 25.2701 4.60965 25.4542 5.29802L25.4543 5.2984C25.6392 5.98628 26.0811 6.56303 26.6986 6.9195Z" fill="#D8BE69" stroke="#D8BE69" stroke-width="0.6"/>
<path d="M26.8954 3.94943L26.8954 3.94949C26.7195 4.25418 26.6731 4.60759 26.764 4.94724L26.7641 4.9473C26.8549 5.28706 27.072 5.56984 27.3763 5.74543C28.0041 6.10764 28.8094 5.89179 29.1724 5.26436C29.3483 4.95972 29.3947 4.6063 29.3041 4.26655C29.2128 3.92657 28.996 3.64393 28.6919 3.46847L26.8954 3.94943ZM26.8954 3.94943C27.1379 3.52913 27.5804 3.29246 28.0367 3.29246M26.8954 3.94943L28.0367 3.29246M28.0367 3.29246C28.2591 3.29246 28.4844 3.34885 28.6918 3.46842L28.0367 3.29246ZM26.6986 6.9195L26.6987 6.91951C27.1093 7.15651 27.5664 7.27819 28.0299 7.27819C28.262 7.27819 28.4951 7.24794 28.7249 7.18634L28.725 7.18633C29.4131 7.00172 29.9892 6.55925 30.3459 5.94233L30.346 5.9422C30.7024 5.32499 30.797 4.60421 30.6129 3.91616L30.6128 3.91604C30.4283 3.22763 29.9864 2.65083 29.3688 2.29435L29.3687 2.29431C28.0936 1.55876 26.4575 1.99607 25.7211 3.27165C25.3646 3.88889 25.2701 4.60965 25.4542 5.29802L25.4543 5.2984C25.6392 5.98628 26.0811 6.56303 26.6986 6.9195Z" fill="#D8BE69" stroke="#D8BE69" stroke-width="0.6"/>
<path d="M6.6349 33.7059L6.63458 33.7058C6.01767 33.349 5.57531 32.7724 5.39076 32.0842L5.39071 32.0841C5.2066 31.396 5.3012 30.6753 5.65755 30.0577C6.01397 29.4401 6.59069 28.9981 7.27904 28.8135L7.27954 28.8134C7.9674 28.6302 8.68762 28.7238 9.305 29.0804M6.6349 33.7059L9.305 29.0804M6.6349 33.7059C7.04515 33.9425 7.50216 34.0642 7.9657 34.0642C8.19846 34.0642 8.43124 34.0335 8.66005 33.973L8.66123 33.9727C9.34943 33.7878 9.92612 33.3458 10.2825 32.7281L10.2826 32.7281C11.0185 31.4527 10.5803 29.8169 9.305 29.0804M6.6349 33.7059L9.15495 29.3402L9.305 29.0804M6.83148 30.7352L6.8316 30.735C7.07407 30.3144 7.51648 30.0781 7.9725 30.0781C8.19475 30.0781 8.42052 30.1348 8.62727 30.2541C9.25476 30.6167 9.4707 31.4227 9.10864 32.0503C8.93266 32.3548 8.64982 32.572 8.31016 32.6628L8.30936 32.663C7.97062 32.7546 7.61763 32.708 7.31276 32.5316L7.31252 32.5315C6.68502 32.1692 6.46895 31.3629 6.83148 30.7352Z" fill="#D8BE69" stroke="#D8BE69" stroke-width="0.6"/>
</svg>
